<svg xmlns="http://www.w3.org/2000/svg" xmlns:xlink="http://www.w3.org/1999/xlink" width="600" height="546" version="1.1" viewBox="0 0 600 546"><title>12_work</title><desc>Created with Sketch.</desc><defs><linearGradient id="linearGradient-1" x1="46.374%" x2="51.866%" y1="9.311%" y2="53.782%"><stop offset="0%" stop-color="#EAF1FC"/><stop offset="100%" stop-color="#C0D4F4"/></linearGradient><linearGradient id="linearGradient-2" x1="72.973%" x2="39.289%" y1="7.152%" y2="69.977%"><stop offset="0%" stop-color="#4C93F4"/><stop offset="100%" stop-color="#0B63DA"/></linearGradient><linearGradient id="linearGradient-3" x1="-.199%" x2="100.199%" y1="50.005%" y2="50.005%"><stop offset="0%" stop-color="#4C93F4"/><stop offset="100%" stop-color="#0B63DA"/></linearGradient><linearGradient id="linearGradient-4" x1="-.202%" x2="100.169%" y1="49.998%" y2="49.998%"><stop offset="0%" stop-color="#4C93F4"/><stop offset="100%" stop-color="#0B63DA"/></linearGradient><linearGradient id="linearGradient-5" x1="108.645%" x2="47.939%" y1="58.474%" y2="50.069%"><stop offset="0%" stop-color="#FFC063"/><stop offset="95%" stop-color="#E44D0B"/></linearGradient><linearGradient id="linearGradient-6" x1="48.916%" x2="69.443%" y1="67.66%" y2="27.873%"><stop offset="0%" stop-color="#223762"/><stop offset="100%" stop-color="#041B48"/></linearGradient><linearGradient id="linearGradient-7" x1="-.023%" x2="100%" y1="50.071%" y2="50.071%"><stop offset="0%" stop-color="#223762"/><stop offset="100%" stop-color="#041B48"/></linearGradient><linearGradient id="linearGradient-8" x1="45.119%" x2="76.327%" y1="77.671%" y2="27.334%"><stop offset="0%" stop-color="#3769A5"/><stop offset="100%" stop-color="#08448B"/></linearGradient><linearGradient id="linearGradient-9" x1="107.585%" x2="35.658%" y1="110.702%" y2="33.833%"><stop offset="0%" stop-color="#223762"/><stop offset="100%" stop-color="#041B48"/></linearGradient><linearGradient id="linearGradient-10" x1="-.027%" x2="99.955%" y1="49.992%" y2="49.992%"><stop offset="0%" stop-color="#4C93F4"/><stop offset="100%" stop-color="#0B63DA"/></linearGradient><linearGradient id="linearGradient-11" x1="223.263%" x2="28.993%" y1="111.178%" y2="32.87%"><stop offset="0%" stop-color="#3769A5"/><stop offset="100%" stop-color="#08448B"/></linearGradient><linearGradient id="linearGradient-12" x1="3.014%" x2="95.973%" y1="47.419%" y2="52.922%"><stop offset="0%" stop-color="#223762"/><stop offset="100%" stop-color="#041B48"/></linearGradient><linearGradient id="linearGradient-13" x1="113.16%" x2="-17.442%" y1="1.874%" y2="88.872%"><stop offset="0%" stop-color="#223762"/><stop offset="100%" stop-color="#041B48"/></linearGradient><linearGradient id="linearGradient-14" x1="0%" x2="100%" y1="49.998%" y2="49.998%"><stop offset="0%" stop-color="#3769A5"/><stop offset="100%" stop-color="#08448B"/></linearGradient><linearGradient id="linearGradient-15" x1="89.966%" x2="-63.121%" y1="2.064%" y2="129.909%"><stop offset="0%" stop-color="#4C93F4"/><stop offset="100%" stop-color="#0B63DA"/></linearGradient><linearGradient id="linearGradient-16" x1="110.086%" x2="7.359%" y1="-8.296%" y2="91.295%"><stop offset="0%" stop-color="#3769A5"/><stop offset="100%" stop-color="#08448B"/></linearGradient><linearGradient id="linearGradient-17" x1="137.781%" x2="3.301%" y1="8.258%" y2="68.286%"><stop offset="0%" stop-color="#FF9F5B"/><stop offset="100%" stop-color="#E5670E"/></linearGradient><linearGradient id="linearGradient-18" x1="312.562%" x2="259.435%" y1="50%" y2="50%"><stop offset="0%" stop-color="#FF9F5B"/><stop offset="100%" stop-color="#E5670E"/></linearGradient><linearGradient id="linearGradient-19" x1="252.027%" x2="181.351%" y1="-249.395%" y2="-144.705%"><stop offset="0%" stop-color="#4C93F4"/><stop offset="100%" stop-color="#0B63DA"/></linearGradient><linearGradient id="linearGradient-20" x1="376.324%" x2="271.634%" y1="270.27%" y2="199.595%"><stop offset="0%" stop-color="#4C93F4"/><stop offset="100%" stop-color="#0B63DA"/></linearGradient><linearGradient id="linearGradient-21" x1="367.971%" x2="291.676%" y1="264.469%" y2="213.091%"><stop offset="0%" stop-color="#4C93F4"/><stop offset="100%" stop-color="#0B63DA"/></linearGradient><linearGradient id="linearGradient-22" x1="413.782%" x2="337.486%" y1="295.374%" y2="243.898%"><stop offset="0%" stop-color="#4C93F4"/><stop offset="100%" stop-color="#0B63DA"/></linearGradient><linearGradient id="linearGradient-23" x1="6.36%" x2="62.774%" y1="-5.154%" y2="87.028%"><stop offset="0%" stop-color="#3769A5"/><stop offset="100%" stop-color="#08448B"/></linearGradient><linearGradient id="linearGradient-24" x1="24.408%" x2="80.808%" y1="-7.973%" y2="84.216%"><stop offset="0%" stop-color="#4C93F4"/><stop offset="100%" stop-color="#0B63DA"/></linearGradient><linearGradient id="linearGradient-25" x1="16.464%" x2="97.321%" y1="-20.938%" y2="111.205%"><stop offset="0%" stop-color="#4C93F4"/><stop offset="100%" stop-color="#0B63DA"/></linearGradient><linearGradient id="linearGradient-26" x1="251.573%" x2="181.119%" y1="-249.314%" y2="-144.706%"><stop offset="0%" stop-color="#4C93F4"/><stop offset="100%" stop-color="#0B63DA"/></linearGradient><linearGradient id="linearGradient-27" x1="376.275%" x2="271.569%" y1="269.755%" y2="199.301%"><stop offset="0%" stop-color="#4C93F4"/><stop offset="100%" stop-color="#0B63DA"/></linearGradient><linearGradient id="linearGradient-28" x1="376.275%" x2="271.569%" y1="269.93%" y2="199.301%"><stop offset="0%" stop-color="#4C93F4"/><stop offset="100%" stop-color="#0B63DA"/></linearGradient><linearGradient id="linearGradient-29" x1="368.24%" x2="291.845%" y1="264.413%" y2="213.01%"><stop offset="0%" stop-color="#4C93F4"/><stop offset="100%" stop-color="#0B63DA"/></linearGradient><linearGradient id="linearGradient-30" x1="414.092%" x2="337.768%" y1="295.153%" y2="243.75%"><stop offset="0%" stop-color="#4C93F4"/><stop offset="100%" stop-color="#0B63DA"/></linearGradient><linearGradient id="linearGradient-31" x1="29.702%" x2="86.812%" y1="30.717%" y2="90.049%"><stop offset="0%" stop-color="#4C93F4"/><stop offset="100%" stop-color="#0B63DA"/></linearGradient><linearGradient id="linearGradient-32" x1="0%" x2="99.64%" y1="50%" y2="50%"><stop offset="0%" stop-color="#4C93F4"/><stop offset="100%" stop-color="#0B63DA"/></linearGradient><linearGradient id="linearGradient-33" x1="44.801%" x2="68.692%" y1="35.669%" y2="87.044%"><stop offset="0%" stop-color="#F8A695"/><stop offset="100%" stop-color="#E56045"/></linearGradient><linearGradient id="linearGradient-34" x1="34.131%" x2="59.444%" y1="90.244%" y2="-14.932%"><stop offset="0%" stop-color="#FFC063"/><stop offset="95%" stop-color="#E44D0B"/></linearGradient><linearGradient id="linearGradient-35" x1="108.715%" x2="-19.972%" y1="85.35%" y2="28.181%"><stop offset="0%" stop-color="#F8A695"/><stop offset="100%" stop-color="#E56045"/></linearGradient><linearGradient id="linearGradient-36" x1="58.615%" x2="45.52%" y1="73.412%" y2="27.999%"><stop offset="0%" stop-color="#F8A695"/><stop offset="100%" stop-color="#E56045"/></linearGradient><linearGradient id="linearGradient-37" x1="96.932%" x2="45.313%" y1="188.698%" y2="15.739%"><stop offset="0%" stop-color="#FFC063"/><stop offset="95%" stop-color="#E44D0B"/></linearGradient><linearGradient id="linearGradient-38" x1="41.351%" x2="66.61%" y1="31.894%" y2="86.496%"><stop offset="0%" stop-color="#223762"/><stop offset="100%" stop-color="#041B48"/></linearGradient><linearGradient id="linearGradient-39" x1="92.464%" x2="52.592%" y1="18.382%" y2="53.573%"><stop offset="0%" stop-color="#223762"/><stop offset="100%" stop-color="#041B48"/></linearGradient><linearGradient id="linearGradient-40" x1="85.707%" x2="54.655%" y1="85.091%" y2="48.828%"><stop offset="0%" stop-color="#FFC063"/><stop offset="95%" stop-color="#E44D0B"/></linearGradient><linearGradient id="linearGradient-41" x1="37.091%" x2="69.648%" y1="96.022%" y2="-20.117%"><stop offset="0%" stop-color="#223762"/><stop offset="100%" stop-color="#041B48"/></linearGradient><linearGradient id="linearGradient-42" x1="46.331%" x2="71.75%" y1="102.523%" y2="-23.63%"><stop offset="0%" stop-color="#4C93F4"/><stop offset="100%" stop-color="#0B63DA"/></linearGradient><linearGradient id="linearGradient-43" x1="37.066%" x2="69.622%" y1="96.048%" y2="-20.117%"><stop offset="0%" stop-color="#223762"/><stop offset="100%" stop-color="#041B48"/></linearGradient><linearGradient id="linearGradient-44" x1="43.416%" x2="74.818%" y1="98.911%" y2="-16.529%"><stop offset="0%" stop-color="#4C93F4"/><stop offset="100%" stop-color="#0B63DA"/></linearGradient><linearGradient id="linearGradient-45" x1="46.576%" x2="78.201%" y1="96.453%" y2="-18.38%"><stop offset="0%" stop-color="#4C93F4"/><stop offset="100%" stop-color="#0B63DA"/></linearGradient><linearGradient id="linearGradient-46" x1="37.078%" x2="69.646%" y1="96.043%" y2="-20.116%"><stop offset="0%" stop-color="#223762"/><stop offset="100%" stop-color="#041B48"/></linearGradient><linearGradient id="linearGradient-47" x1="49.999%" x2="49.999%" y1="10.278%" y2="224.378%"><stop offset="0%" stop-color="#FFC063"/><stop offset="95%" stop-color="#E44D0B"/></linearGradient><linearGradient id="linearGradient-48" x1="37.521%" x2="70.077%" y1="94.186%" y2="-21.636%"><stop offset="0%" stop-color="#223762"/><stop offset="100%" stop-color="#041B48"/></linearGradient><linearGradient id="linearGradient-49" x1="53.376%" x2="34.971%" y1="14.021%" y2="208.723%"><stop offset="0%" stop-color="#FFC063"/><stop offset="95%" stop-color="#E44D0B"/></linearGradient><linearGradient id="linearGradient-50" x1="100%" x2="-.002%" y1="49.966%" y2="49.966%"><stop offset="0%" stop-color="#223762"/><stop offset="100%" stop-color="#041B48"/></linearGradient><linearGradient id="linearGradient-51" x1="-.928%" x2="100.928%" y1="50.017%" y2="50.017%"><stop offset="0%" stop-color="#4C93F4"/><stop offset="100%" stop-color="#0B63DA"/></linearGradient><linearGradient id="linearGradient-52" x1="-.92%" x2="100.92%" y1="49.972%" y2="49.972%"><stop offset="0%" stop-color="#4C93F4"/><stop offset="100%" stop-color="#0B63DA"/></linearGradient><linearGradient id="linearGradient-53" x1="-3.516%" x2="103.586%" y1="50%" y2="50%"><stop offset="0%" stop-color="#4C93F4"/><stop offset="100%" stop-color="#0B63DA"/></linearGradient><linearGradient id="linearGradient-54" x1="-3.516%" x2="103.516%" y1="50%" y2="50%"><stop offset="0%" stop-color="#4C93F4"/><stop offset="100%" stop-color="#0B63DA"/></linearGradient><linearGradient id="linearGradient-55" x1="-3.586%" x2="103.516%" y1="50%" y2="50%"><stop offset="0%" stop-color="#4C93F4"/><stop offset="100%" stop-color="#0B63DA"/></linearGradient><linearGradient id="linearGradient-56" x1="-.943%" x2="100.943%" y1="50%" y2="50%"><stop offset="0%" stop-color="#4C93F4"/><stop offset="100%" stop-color="#0B63DA"/></linearGradient><linearGradient id="linearGradient-57" x1="55.432%" x2="-3.868%" y1="29.341%" y2="158.836%"><stop offset="0%" stop-color="#FFC063"/><stop offset="95%" stop-color="#E44D0B"/></linearGradient><linearGradient id="linearGradient-58" x1="-2.102%" x2="102.102%" y1="50%" y2="50%"><stop offset="0%" stop-color="#4C93F4"/><stop offset="100%" stop-color="#0B63DA"/></linearGradient><linearGradient id="linearGradient-59" x1="-1.885%" x2="101.885%" y1="50%" y2="50%"><stop offset="0%" stop-color="#4C93F4"/><stop offset="100%" stop-color="#0B63DA"/></linearGradient><linearGradient id="linearGradient-60" x1="-2.139%" x2="102.139%" y1="50%" y2="50%"><stop offset="0%" stop-color="#4C93F4"/><stop offset="100%" stop-color="#0B63DA"/></linearGradient><linearGradient id="linearGradient-61" x1="-2.236%" x2="102.236%" y1="50%" y2="50%"><stop offset="0%" stop-color="#4C93F4"/><stop offset="100%" stop-color="#0B63DA"/></linearGradient><linearGradient id="linearGradient-62" x1="-2.789%" x2="102.789%" y1="50%" y2="50%"><stop offset="0%" stop-color="#4C93F4"/><stop offset="100%" stop-color="#0B63DA"/></linearGradient><linearGradient id="linearGradient-63" x1="-1.837%" x2="101.837%" y1="50%" y2="50%"><stop offset="0%" stop-color="#4C93F4"/><stop offset="100%" stop-color="#0B63DA"/></linearGradient></defs><g id="Page-1" fill="none" fill-rule="evenodd" stroke="none" stroke-width="1"><g id="12_work"><path id="Path" fill="url(#linearGradient-1)" d="M164.76,89 C295.38,107.63 389.08,15.66 454,4.36 C551.47,-12.64 664.19,81.1 555.7,282.97 C447.21,484.84 398.7,533.33 253.05,531.97 C136.54,530.86 47.05,433.87 15.93,361.97 C-32.78,249.44 34.15,70.38 164.76,89 Z" opacity=".49"/><rect id="Rectangle" width="376.76" height="272.39" x="122.82" y="44.31" fill="#223762"/><rect id="Rectangle" width="372.19" height="272.39" x="118.48" y="44.31" fill="url(#linearGradient-2)"/><rect id="Rectangle" width="360.2" height="260.65" x="124.48" y="50.17" fill="#FFF"/><polygon id="Path" fill="#D6E3FA" points="124.48 50.17 484.68 310.82 122.36 310.82" opacity=".34"/><path id="Path" stroke="url(#linearGradient-3)" stroke-linecap="round" d="M159.19,90.61 C159.19,90.61 228.35,88.83 250.82,107.77 C273.29,126.71 279.31,180.77 289.9,217.29 C304.34,267.16 377.34,286.75 410.16,269.02"/><path id="Path" stroke="url(#linearGradient-4)" stroke-linecap="round" d="M149.31,65.62 C149.31,65.62 151.85,238.11 149.31,263.15 L146.77,288.15 C146.77,288.15 377.3,292.76 398,292.25 L418.66,291.74"/><path id="Path" fill="url(#linearGradient-5)" d="M92.07,212.7 C92.07,212.7 81.07,261.01 80.72,270.35 C80.37,279.69 108.88,313.6 108.88,313.6 L122.36,249.77 L92.07,212.7 Z"/><path id="Path" fill="url(#linearGradient-6)" d="M52.25,464.89 L38.31,475.41 C38.31,475.41 47.31,496.54 49.46,499.14 C51.61,501.74 62.52,509.2 65.6,509 C68.68,508.8 69.6,505.8 68.3,502.47 C67,499.14 61.94,492.55 61.24,490.2 C60.54,487.85 64,475.24 64,475.24 L52.25,464.89 Z"/><path id="Path" fill="url(#linearGradient-7)" d="M134.28,501.42 L129.68,522.76 C129.68,522.76 146.92,530.18 150.77,530.76 C154.62,531.34 172.67,530.76 172.67,530.76 C172.67,530.76 173.39,530.76 172.67,527.63 C171.95,524.5 159.07,521.37 155.82,520.63 C153.842431,520.200646 152.318656,518.621605 151.96,516.63 L150.41,508.35 L134.28,501.42 Z"/><path id="Path" fill="url(#linearGradient-8)" d="M94.44,319.16 C94.44,319.16 91.1,338.66 92.89,349 C94.68,359.34 102.38,413 102.38,413 L49.67,463.11 C49.67,463.11 52.08,472.45 58.82,474.95 C65.56,477.45 66.4,477.12 66.4,477.12 C66.4,477.12 122.85,434.23 128.14,426.05 C133.43,417.87 135,323.84 135,323.84 L94.44,319.16 Z"/><path id="Path" fill="url(#linearGradient-9)" d="M99.47,216.9 C100.357174,217.509974 101.275046,218.074048 102.22,218.59 C101.774717,218.989886 101.630394,219.627309 101.86,220.18 C109.86,236.64 104.48,291.76 101.54,316.69 L174.39,316.69 C172.21,296.57 168.09,255.91 170,252.1 C171.11,249.88 171.17,245.38 170.89,241.02 C170.52,235.38 169.58,229.95 169.58,229.95 C170.79,225.8 222.39,216.33 227.38,207.18 C232.37,198.03 248.77,140.4 248.77,140.4 L247.67,139.75 C249.67,136.62 253.67,129.63 252.36,126.48 C252.199569,126.08994 251.998457,125.717883 251.76,125.37 L257.81,124.37 L262.81,120.52 L265.61,120.05 L265.15,117.31 L262.38,117.78 L256.38,115.78 L255.48,115.93 C255.640326,115.718013 255.718476,115.455145 255.7,115.19 C255.36,113.7 255.7,112.45 252.39,112.33 C250.34,112.26 245.57,114.87 241.8,118.24 L231.91,119.92 C231.439114,120.00064 231.019601,120.265167 230.743875,120.65531 C230.468149,121.045454 230.35883,121.529205 230.44,122 L231.3,127 C231.38064,127.470886 231.645167,127.890399 232.03531,128.166125 C232.425454,128.441851 232.909205,128.55117 233.38,128.47 L236.24,127.99 C235.950907,131.149145 236.038186,134.33145 236.5,137.47 C235.72,137.65 235.22,137.81 235.22,137.81 L210.96,193.81 C210.56,194.72 186.34,198.93 185.36,199.12 L150.26,207 L146.87,207.48 C148.634685,202.652795 149.724964,197.605209 150.11,192.48 C152.26,191.78 153.73,191.2 154.51,187.23 C154.87,185.39 154.66,181.83 154.58,177.62 C155.8,177.72 157.58,177.62 157.43,176.06 C157.22,174.06 155.59,167.42 155.12,165.57 C155.22,164.9 155.33,164.23 155.47,163.57 C155.827015,161.333196 155.613764,159.042467 154.85,156.91 C155.732738,155.83928 156.450653,154.642755 156.98,153.36 C159.98,146.36 148.93,128.72 129.56,130.71 C120.81,131.61 114.37,133.8 109.31,140.27 C107.276272,142.794621 105.594281,145.583361 104.31,148.56 C98.59,161.29 107.77,163.36 99.31,180.76 C91.08,197.76 94.9,213.73 99.47,216.9 Z" opacity=".09"/><path id="Path" fill="url(#linearGradient-10)" d="M105.89,312.1 C104.000831,322.960599 103.17027,333.978925 103.41,345 C103.89,362.52 147.17,420.34 147.17,420.34 L133.17,502.94 C133.17,502.94 136.37,507.67 144.08,508.75 L151.78,509.83 C151.78,509.83 174.89,428.62 175.37,414.1 C175.85,399.58 162.1,317.2 162.1,317.2 L105.89,312.1 Z"/><path id="Path" fill="url(#linearGradient-11)" d="M118.47,340.54 C124.47,340.09 146.88,333.75 163.96,328.71 C162.83,321.71 162.08,317.21 162.08,317.21 L105.87,312.11 C103.981477,322.967314 103.150918,333.982259 103.39,345 C103.87,362.52 147.15,420.34 147.15,420.34 L133.15,502.94 C135.033207,505.307717 137.588354,507.050655 140.48,507.94 C144.68,497.87 151.19,481.1 152.38,471.42 C154.16,456.94 149.08,441.19 151.38,428.48 C153.68,415.77 165.62,414.48 165.18,409.17 C164.74,403.86 155.46,405.87 145.55,401.55 C135.64,397.23 115.82,364.96 111.55,356.33 C107.28,347.7 108.39,341.3 118.47,340.54 Z"/><path id="Path" fill="url(#linearGradient-12)" d="M489,348.61 C479.81,383.47 484,417.75 498,442.78 C522.51,427.9 543.07,400.15 552.26,365.29 C561.45,330.43 557.26,296.15 543.26,271.12 C518.73,286 498.16,313.75 489,348.61 Z"/><path id="Path" stroke="#124" stroke-linecap="round" stroke-linejoin="round" d="M525.56,347.21 C519.798203,363.406907 515.032635,379.941121 511.29,396.72 C504.64,425.94 506.29,460.72 506.29,460.72"/><path id="Path" stroke="#124" stroke-linecap="round" stroke-linejoin="round" d="M486.81,337.17 C486.81,337.17 490.81,370.69 495.72,396.52 C500.63,422.35 503.98,456.52 503.98,456.52"/><path id="Path" stroke="#124" stroke-linecap="round" stroke-linejoin="round" d="M478.82,393.45 C478.82,393.45 486.82,415.28 492.66,429.45 C498.5,443.62 504,458.13 504,458.13"/><path id="Path" fill="url(#linearGradient-13)" d="M512.41,214.55 C508.24,245.09 511.86,273.27 520.87,292.32 C534.66,276.39 545.71,250.22 549.87,219.68 C554.03,189.14 550.42,160.96 541.41,141.91 C527.63,157.83 516.58,184 512.41,214.55 Z"/><path id="Path" fill="url(#linearGradient-14)" d="M484.07,263.54 C485.33,235.54 487.19,185.1 488.26,155.68 C468.86,179.68 456.41,216.5 456.41,257.82 C456.41,298.66 468.58,335.08 487.6,359.11 C485.48,330.89 482.93,289 484.07,263.54 Z"/><path id="Path" fill="url(#linearGradient-15)" d="M521.76,257.82 C521.76,215.91 508.97,178.62 489.08,154.62 C488.8,154.96 488.53,155.33 488.26,155.67 C487.19,185.09 485.33,235.57 484.07,263.53 C482.93,288.99 485.48,330.89 487.59,359.1 C488.09,359.73 488.59,360.39 489.08,361.01 C509,337 521.76,299.73 521.76,257.82 Z"/><path id="Path" fill="url(#linearGradient-16)" d="M522,286.44 C514.47,311.57 515.44,336.23 523,354.19 C539.23,343.38 553.61,323.32 561.14,298.19 C568.67,273.06 567.7,248.4 560.14,230.44 C543.88,241.25 529.51,261.31 522,286.44 Z"/><polygon id="Path" fill="url(#linearGradient-17)" points="540.14 531.06 468.2 531.06 457.52 437.82 550.82 437.82"/><polygon id="Path" fill="url(#linearGradient-18)" points="457.52 437.82 468.2 531.06 495.73 531.06 487.76 437.82"/><rect id="Rectangle" width="100.59" height="22.98" x="453.87" y="435.16" fill="#FFD46A"/><ellipse id="Oval" cx="490.52" cy="270.14" fill="url(#linearGradient-19)" rx="3.7" ry="6.61"/><ellipse id="Oval" cx="499.073" cy="277.451" fill="url(#linearGradient-20)" rx="6.61" ry="3.7" transform="translate(499.072558, 277.450995) rotate(-45.000000) translate(-499.072558, -277.450995)"/><ellipse id="Oval" cx="497.869" cy="312.525" fill="url(#linearGradient-21)" rx="9.07" ry="5.08" transform="translate(497.869335, 312.524829) rotate(-45.000000) translate(-497.869335, -312.524829)"/><ellipse id="Oval" cx="495.78" cy="330.605" fill="url(#linearGradient-22)" rx="9.07" ry="5.08" transform="translate(495.780271, 330.605373) rotate(-65.030000) translate(-495.780271, -330.605373)"/><path id="Path" fill="url(#linearGradient-23)" d="M434.94,350.13 C446.42,379.13 465.47,401.35 485.78,412.49 C457.65,380.72 429.26,269.88 429.26,269.88 C422.09,291.9 423.46,321.17 434.94,350.13 Z"/><path id="Path" fill="url(#linearGradient-24)" d="M480.1,332.23 C468.62,303.23 449.57,281.01 429.26,269.87 C429.26,269.87 457.66,380.71 485.78,412.48 C492.95,390.46 491.57,361.19 480.1,332.23 Z"/><path id="Path" fill="url(#linearGradient-25)" d="M480.1,332.23 C468.62,303.23 449.57,281.01 429.26,269.87 C429.26,269.87 457.66,380.71 485.78,412.48 C492.95,390.46 491.57,361.19 480.1,332.23 Z"/><ellipse id="Oval" cx="460.413" cy="353.35" fill="url(#linearGradient-26)" rx="2.86" ry="5.1" transform="translate(460.413237, 353.350018) rotate(-22.730000) translate(-460.413237, -353.350018)"/><ellipse id="Oval" cx="478.817" cy="356.307" fill="url(#linearGradient-26)" rx="2.86" ry="5.1" transform="translate(478.817152, 356.306711) rotate(-22.730000) translate(-478.817152, -356.306711)"/><ellipse id="Oval" cx="468.668" cy="355.993" fill="url(#linearGradient-27)" rx="5.1" ry="2.86" transform="translate(468.667998, 355.992818) rotate(-67.730000) translate(-468.667998, -355.992818)"/><ellipse id="Oval" cx="470.162" cy="365.848" fill="url(#linearGradient-28)" rx="5.1" ry="2.86" transform="translate(470.161727, 365.847577) rotate(-67.730000) translate(-470.161727, -365.847577)"/><ellipse id="Oval" cx="478.267" cy="381.314" fill="url(#linearGradient-29)" rx="6.99" ry="3.92" transform="translate(478.267463, 381.314461) rotate(-67.730000) translate(-478.267463, -381.314461)"/><ellipse id="Oval" cx="482.165" cy="394.8" fill="url(#linearGradient-30)" rx="6.99" ry="3.92" transform="translate(482.164514, 394.800151) rotate(-87.760000) translate(-482.164514, -394.800151)"/><path id="Path" fill="url(#linearGradient-31)" d="M231.569626,104.431071 L237.929626,104.431071 C238.581322,104.431071 239.109626,104.959375 239.109626,105.611071 L239.109626,131.061071 L230.389626,131.061071 L230.389626,105.621071 C230.389626,105.308116 230.513947,105.007978 230.73524,104.786685 C230.956533,104.565392 231.256671,104.441071 231.569626,104.441071 L231.569626,104.431071 Z" transform="translate(234.749626, 117.746071) rotate(-99.620000) translate(-234.749626, -117.746071)"/><polygon id="Path" fill="#D6E3FA" points="248.61 119.81 253.6 115.96 253.17 113.22 247.15 111.22"/><rect id="Rectangle" width="2.78" height="2.84" x="253.386" y="112.932" fill="url(#linearGradient-32)" transform="translate(254.776486, 114.351603) rotate(-99.620000) translate(-254.776486, -114.351603)"/><path id="Path" fill="url(#linearGradient-33)" d="M227.61,135.2 C227.61,135.2 225.78,126.2 227.61,120.34 C229.44,114.48 239.84,107.65 243.15,107.77 C246.46,107.89 246.15,109.14 246.46,110.63 C246.77,112.12 239.03,117.83 238.57,118.86 C238.11,119.89 241.43,117.86 243.14,121.95 C244.85,126.04 237.43,136.79 237.43,136.79 L227.61,135.2 Z"/><path id="Path" fill="url(#linearGradient-34)" d="M141,202.4 L176.09,194.57 C177.09,194.38 201.29,190.17 201.69,189.26 L225.95,133.26 C225.95,133.26 231.82,131.26 235.66,133.56 L239.5,135.82 C239.5,135.82 223.11,193.46 218.11,202.6 C213.11,211.74 161.52,221.22 160.31,225.37 C160.31,225.37 163.31,242.37 160.73,247.49 C158.15,252.61 166.36,323.22 166.36,323.22 C166.36,323.22 140.87,330.22 120.21,329.37 C99.55,328.52 90.7,324.51 90.7,324.51 C90.7,324.51 102.99,237.06 92.6,215.56 C89.59,209.33 141,202.4 141,202.4 Z"/><path id="Path" fill="url(#linearGradient-35)" d="M145.76,160.48 C145.76,160.48 147.95,169.14 148.19,171.48 C148.43,173.82 144.25,172.89 144.25,172.89 L145.76,160.48 Z"/><path id="Path" fill="url(#linearGradient-36)" d="M146.23,159 C147.99,150.43 137.11,137.67 135.23,136.89 C133.35,136.11 105.05,140.39 99.35,147.46 C93.65,154.53 97.35,162.94 97.35,162.94 C97.35,162.94 100.8,161.24 97.88,163.3 C94.96,165.36 91.41,171.62 92.12,175.57 C93.02,180.57 102.22,177.67 102.22,177.67 C102.22,177.67 107.89,188.39 116.8,193.91 L117.24,194.15 L116.64,199.15 C120.497346,201.612089 125.111104,202.605822 129.64,201.95 C137.49,200.75 137.64,199.07 137.64,199.07 L137.39,189.26 C141.47,186.99 144.08,188.43 145.23,182.62 C146,178.9 144.38,168 146.23,159 Z"/><path id="Path" fill="url(#linearGradient-37)" d="M140.77,202.44 C136.83,202.98 89.77,209.6 92.66,215.61 C94.15,218.7 95.17,223.15 95.84,228.5 C109.66,234.89 136.67,239.35 140.77,202.44 Z"/><path id="Path" fill="url(#linearGradient-38)" d="M147.74,148.78 C144.74,155.78 139.13,155.59 139.55,158.86 C149.25,234.44 102.46,218.04 90.94,210.04 C86.47,206.93 82.73,191.31 90.79,174.69 C99.04,157.69 90.06,155.64 95.66,143.19 C101.26,130.74 108.8,127.31 120.31,126.13 C139.68,124.15 150.69,141.75 147.74,148.78 Z"/><path id="Path" fill="url(#linearGradient-39)" d="M131.84,198.11 C127.17,202.96 119.89,203.9 115.04,202.44 C110.19,200.98 105.7,195.87 108.13,183.36 C110.56,170.85 106.45,154.79 108.13,147.7 C109.81,140.61 117.13,132.76 128.48,130.15 C131.110003,129.601865 133.81063,129.476961 136.48,129.78 C131.529943,127.032294 125.84519,125.899538 120.22,126.54 C108.45,127.75 100.76,131.23 95.02,143.99 C89.28,156.75 98.48,158.79 90.02,176.19 C81.78,193.19 85.6,209.19 90.17,212.33 C100.31,219.38 137.24,232.8 140.91,186.92 C138.130366,190.841103 135.100746,194.57886 131.84,198.11 Z"/><path id="Path" fill="url(#linearGradient-40)" d="M218.18,202.64 C223.18,193.49 239.57,135.86 239.57,135.86 L237.3,134.53 C237.3,134.53 219.98,190.12 214.9,195.53 C209.82,200.94 153,212.34 147.32,217.3 C141.64,222.26 161.69,236.48 161.69,236.48 C161.32,230.84 160.38,225.41 160.38,225.41 C161.59,221.26 213.18,211.79 218.18,202.64 Z"/><rect id="Rectangle" width="39.47" height="39.47" x="359.54" y="72.51" fill="url(#linearGradient-41)" opacity=".45"/><path id="Path" fill="url(#linearGradient-42)" d="M347.74,106 L353.74,104.24 C359.74,102.48 359.52,90 359.52,90 L359.52,69.14 L399,69.14 L399,90 C399,90 399.24,102.49 393.22,104.24 L387.22,106 L347.74,106 Z"/><rect id="Rectangle" width="39.47" height="39.47" x="409.388" y="132.794" fill="url(#linearGradient-43)" opacity=".45" transform="translate(429.123338, 152.528862) rotate(-2.670000) translate(-429.123338, -152.528862)"/><path id="Path" fill="url(#linearGradient-44)" d="M393.63,163.47 L399.78,162.25 C405.93,161.03 406.78,148.57 406.78,148.57 L408.61,127.77 L447.92,131.22 L446.09,152 C446.09,152 445.24,164.46 439.09,165.68 L432.94,166.9 L393.63,163.47 Z"/><path id="Path" fill="url(#linearGradient-45)" d="M242.85,448.19 L247.5,447.19 C252.15,446.19 252.82,436.54 252.82,436.54 L254.24,420.37 L284,423 L282.58,439.17 C282.58,439.17 281.91,448.86 277.26,449.82 L272.61,450.82 L242.85,448.19 Z"/><rect id="Rectangle" width="36.14" height="36.14" x="302.22" y="114.17" fill="url(#linearGradient-46)" opacity=".45"/><path id="Path" fill="url(#linearGradient-47)" d="M291.42,144.85 L296.93,143.24 C302.44,141.63 302.22,130.24 302.22,130.24 L302.22,111.09 L338.36,111.09 L338.36,130.2 C338.36,130.2 338.58,141.63 333.07,143.2 L327.56,144.81 L291.42,144.85 Z"/><rect id="Rectangle" width="35.4" height="36.97" x="216.937" y="231.794" fill="url(#linearGradient-48)" opacity=".45" transform="translate(234.637124, 250.278582) rotate(0.860000) translate(-234.637124, -250.278582)"/><path id="Path" fill="url(#linearGradient-49)" d="M201.7,259.45 L207.37,258.57 C213.04,257.69 214.31,246.32 214.31,246.32 L216.79,227.32 L252.62,232 L250.14,251 C250.14,251 248.88,262.37 243.2,263.25 L237.53,264.13 L201.7,259.45 Z"/><polygon id="Path" fill="url(#linearGradient-50)" points="1.32 545.73 579.45 545.73 539.77 531.06 37.92 531.06"/><polyline id="Path" stroke="url(#linearGradient-51)" stroke-linecap="round" points="262.88 107.77 281.94 77.56 316.77 77.56"/><polyline id="Path" stroke="url(#linearGradient-52)" stroke-linecap="round" points="323.1 243.47 344.94 225.68 377.47 225.68"/><circle id="Oval" cx="180.05" cy="90.93" r="7.11" stroke="url(#linearGradient-53)" stroke-linecap="round"/><circle id="Oval" cx="262.88" cy="124.85" r="7.11" stroke="url(#linearGradient-54)" stroke-linecap="round"/><circle id="Oval" cx="284.67" cy="193.72" r="7.11" stroke="url(#linearGradient-53)" stroke-linecap="round"/><circle id="Oval" cx="314.89" cy="252.74" r="7.11" stroke="url(#linearGradient-55)" stroke-linecap="round"/><polyline id="Path" stroke="url(#linearGradient-56)" stroke-linecap="round" points="277.56 204.09 262.88 221.11 224.52 221.11"/><path id="Path" fill="url(#linearGradient-57)" d="M333.31,393.47 L338.69,395.28 C344.07,397.09 349.04,388.86 349.04,388.86 L357.66,375.29 L388.16,394.67 L379.54,408.24 C379.54,408.24 374.54,416.47 369.19,414.66 L363.81,412.85 L333.31,393.47 Z"/><path id="Path" stroke="#FFF" stroke-linecap="round" d="M364.89,76.45 L392.33,76.45"/><path id="Path" stroke="#FFF" stroke-linecap="round" d="M364.89,83.81 L386.42,84.65"/><path id="Path" stroke="#FFF" stroke-linecap="round" d="M364.89,92.24 L386.42,92.24"/><path id="Path" stroke="#FFF" stroke-linecap="round" d="M308.46,119.14 L328.68,119.81"/><path id="Path" stroke="#FFF" stroke-linecap="round" d="M308.46,127.76 L331.73,127.76"/><path id="Path" stroke="#FFF" stroke-linecap="round" d="M428,139 C418.66,138.24 416.95,143 416.38,147.39 C415.81,151.78 421.27,157.93 427.56,156.08 C433.85,154.23 435.44,151.77 435.06,146.63 C434.68,141.49 430.87,140.15 430.87,140.15"/><path id="Path" stroke="#FFF" stroke-linecap="round" d="M425.67,147.34 L439.78,142.67"/><path id="Path" stroke="#FFF" stroke-linecap="round" d="M220.45,236.48 L242.81,239.44"/><path id="Path" stroke="#FFF" stroke-linecap="round" d="M220.45,246.55 L236.64,247.82"/><path id="Path" stroke="#FFF" stroke-linecap="round" d="M218.67,252.74 L242.81,253.92"/><path id="Path" stroke="url(#linearGradient-58)" stroke-linecap="round" d="M284.67,63.88 L308.46,62.1"/><path id="Path" stroke="url(#linearGradient-59)" stroke-linecap="round" d="M284.67,70.23 L311.2,70.23"/><path id="Path" stroke="url(#linearGradient-60)" stroke-linecap="round" d="M346.72,213.78 L370.1,213.78"/><path id="Path" stroke="url(#linearGradient-61)" stroke-linecap="round" d="M347.74,219.74 L370.1,219.74"/><path id="Path" stroke="url(#linearGradient-62)" stroke-linecap="round" d="M228.55,213.78 L246.48,213.78"/><path id="Path" stroke="url(#linearGradient-63)" stroke-linecap="round" d="M228.55,208.69 L255.77,208.69"/><ellipse id="Oval" cx="307.77" cy="6.65" fill="#FFD46A" rx="6.16" ry="6.65"/><ellipse id="Oval" cx="516.8" cy="126.38" fill="#FFD46A" rx="6.16" ry="6.65"/><ellipse id="Oval" cx="80.72" cy="126.38" fill="#FFD46A" rx="6.16" ry="6.65"/><ellipse id="Oval" cx="192.93" cy="354.35" fill="#FFD46A" rx="6.16" ry="6.65"/></g></g></svg>