<svg xmlns="http://www.w3.org/2000/svg" xmlns:xlink="http://www.w3.org/1999/xlink" width="596" height="623" version="1.1" viewBox="0 0 596 623"><title>9_work</title><desc>Created with Sketch.</desc><defs><linearGradient id="linearGradient-1" x1="-148.662%" x2="-162.538%" y1="-92.867%" y2="-102.862%"><stop offset="0%" stop-color="#EAF1FC"/><stop offset="100%" stop-color="#C0D4F4"/></linearGradient><linearGradient id="linearGradient-2" x1="-1.456%" x2="101.274%" y1="51.457%" y2="49.694%"><stop offset="0%" stop-color="#223762"/><stop offset="100%" stop-color="#041B48"/></linearGradient><linearGradient id="linearGradient-3" x1="105.838%" x2="2.534%" y1="1.732%" y2="90.553%"><stop offset="0%" stop-color="#223762"/><stop offset="100%" stop-color="#041B48"/></linearGradient><linearGradient id="linearGradient-4" x1="2.693%" x2="76.072%" y1="51.686%" y2="49.983%"><stop offset="0%" stop-color="#3769A5"/><stop offset="100%" stop-color="#08448B"/></linearGradient><linearGradient id="linearGradient-5" x1="65.571%" x2="1.372%" y1=".546%" y2="131.444%"><stop offset="0%" stop-color="#4C93F4"/><stop offset="100%" stop-color="#0B63DA"/></linearGradient><linearGradient id="linearGradient-6" x1="99.109%" x2="15.275%" y1="-9.013%" y2="91.76%"><stop offset="0%" stop-color="#3769A5"/><stop offset="100%" stop-color="#08448B"/></linearGradient><linearGradient id="linearGradient-7" x1="252.033%" x2="181.401%" y1="-249.536%" y2="-144.81%"><stop offset="0%" stop-color="#4C93F4"/><stop offset="100%" stop-color="#0B63DA"/></linearGradient><linearGradient id="linearGradient-8" x1="376.54%" x2="271.814%" y1="270.105%" y2="199.473%"><stop offset="0%" stop-color="#4C93F4"/><stop offset="100%" stop-color="#0B63DA"/></linearGradient><linearGradient id="linearGradient-9" x1="368.112%" x2="291.79%" y1="264.254%" y2="212.829%"><stop offset="0%" stop-color="#4C93F4"/><stop offset="100%" stop-color="#0B63DA"/></linearGradient><linearGradient id="linearGradient-10" x1="413.961%" x2="337.638%" y1="295.121%" y2="243.695%"><stop offset="0%" stop-color="#4C93F4"/><stop offset="100%" stop-color="#0B63DA"/></linearGradient><linearGradient id="linearGradient-11" x1="1.32%" x2="65.974%" y1="-5.314%" y2="88.048%"><stop offset="0%" stop-color="#3769A5"/><stop offset="100%" stop-color="#08448B"/></linearGradient><linearGradient id="linearGradient-12" x1="19.286%" x2="83.942%" y1="-9.262%" y2="84.104%"><stop offset="0%" stop-color="#4C93F4"/><stop offset="100%" stop-color="#0B63DA"/></linearGradient><linearGradient id="linearGradient-13" x1="10.192%" x2="102.865%" y1="-22.392%" y2="111.434%"><stop offset="0%" stop-color="#4C93F4"/><stop offset="100%" stop-color="#0B63DA"/></linearGradient><linearGradient id="linearGradient-14" x1="251.657%" x2="181.189%" y1="-249.562%" y2="-144.803%"><stop offset="0%" stop-color="#4C93F4"/><stop offset="100%" stop-color="#0B63DA"/></linearGradient><linearGradient id="linearGradient-15" x1="251.657%" x2="181.189%" y1="-249.508%" y2="-144.803%"><stop offset="0%" stop-color="#4C93F4"/><stop offset="100%" stop-color="#0B63DA"/></linearGradient><linearGradient id="linearGradient-16" x1="376.532%" x2="271.827%" y1="269.786%" y2="199.318%"><stop offset="0%" stop-color="#4C93F4"/><stop offset="100%" stop-color="#0B63DA"/></linearGradient><linearGradient id="linearGradient-17" x1="376.532%" x2="271.827%" y1="269.688%" y2="199.22%"><stop offset="0%" stop-color="#4C93F4"/><stop offset="100%" stop-color="#0B63DA"/></linearGradient><linearGradient id="linearGradient-18" x1="368.182%" x2="291.826%" y1="264.438%" y2="212.945%"><stop offset="0%" stop-color="#4C93F4"/><stop offset="100%" stop-color="#0B63DA"/></linearGradient><linearGradient id="linearGradient-19" x1="295.306%" x2="243.883%" y1="-313.995%" y2="-237.64%"><stop offset="0%" stop-color="#4C93F4"/><stop offset="100%" stop-color="#0B63DA"/></linearGradient><linearGradient id="linearGradient-20" x1="3.529%" x2="40.557%" y1="61.866%" y2="44.729%"><stop offset="0%" stop-color="#FFC063"/><stop offset="95%" stop-color="#E44D0B"/></linearGradient><linearGradient id="linearGradient-21" x1="61.578%" x2="26.234%" y1="-23.822%" y2="164.356%"><stop offset="0%" stop-color="#FFC063"/><stop offset="95%" stop-color="#E44D0B"/></linearGradient><linearGradient id="linearGradient-22" x1="-402.809%" x2="-436.461%" y1="967.352%" y2="1032.554%"><stop offset="0%" stop-color="#EAF1FC"/><stop offset="100%" stop-color="#C0D4F4"/></linearGradient><linearGradient id="linearGradient-23" x1="37.113%" x2="69.661%" y1="96.042%" y2="-20.122%"><stop offset="0%" stop-color="#223762"/><stop offset="100%" stop-color="#041B48"/></linearGradient><linearGradient id="linearGradient-24" x1="46.335%" x2="71.763%" y1="102.422%" y2="-23.612%"><stop offset="0%" stop-color="#4C93F4"/><stop offset="100%" stop-color="#0B63DA"/></linearGradient><linearGradient id="linearGradient-25" x1="37.095%" x2="69.661%" y1="96.042%" y2="-20.122%"><stop offset="0%" stop-color="#223762"/><stop offset="100%" stop-color="#041B48"/></linearGradient><linearGradient id="linearGradient-26" x1="42.308%" x2="76.031%" y1="97.375%" y2="-13.843%"><stop offset="0%" stop-color="#4C93F4"/><stop offset="100%" stop-color="#0B63DA"/></linearGradient><linearGradient id="linearGradient-27" x1="37.087%" x2="69.641%" y1="96.02%" y2="-20.132%"><stop offset="0%" stop-color="#223762"/><stop offset="100%" stop-color="#041B48"/></linearGradient><linearGradient id="linearGradient-28" x1="31.864%" x2="83.963%" y1="22.385%" y2="171.242%"><stop offset="0%" stop-color="#FFC063"/><stop offset="95%" stop-color="#E44D0B"/></linearGradient><linearGradient id="linearGradient-29" x1="29.084%" x2="132.125%" y1="45.371%" y2="92.116%"><stop offset="0%" stop-color="#F8A695"/><stop offset="100%" stop-color="#E56045"/></linearGradient><linearGradient id="linearGradient-30" x1="-82.785%" x2="106.81%" y1="31.929%" y2="52.059%"><stop offset="0%" stop-color="#F8A695"/><stop offset="100%" stop-color="#E56045"/></linearGradient><linearGradient id="linearGradient-31" x1="-18.314%" x2="-7.696%" y1="36.138%" y2="37.756%"><stop offset="0%" stop-color="#FFC063"/><stop offset="95%" stop-color="#E44D0B"/></linearGradient><linearGradient id="linearGradient-32" x1="107.609%" x2="-29.955%" y1="-8.204%" y2="141.06%"><stop offset="0%" stop-color="#FFC063"/><stop offset="100%" stop-color="#E58F0F"/></linearGradient><linearGradient id="linearGradient-33" x1="-67.255%" x2="-21.406%" y1="21.56%" y2="31.764%"><stop offset="0%" stop-color="#FFC063"/><stop offset="95%" stop-color="#E44D0B"/></linearGradient><linearGradient id="linearGradient-34" x1="57.549%" x2="55.112%" y1="104.451%" y2="43.422%"><stop offset="0%" stop-color="#F8A695"/><stop offset="100%" stop-color="#E56045"/></linearGradient><linearGradient id="linearGradient-35" x1="62.344%" x2="54.675%" y1="12.786%" y2="26.467%"><stop offset="0%" stop-color="#223762"/><stop offset="100%" stop-color="#041B48"/></linearGradient><linearGradient id="linearGradient-36" x1="37.35%" x2="62.414%" y1="87.374%" y2="-8.393%"><stop offset="0%" stop-color="#F8A695"/><stop offset="100%" stop-color="#E56045"/></linearGradient><linearGradient id="linearGradient-37" x1="50.176%" x2="66.734%" y1="28.503%" y2="101.18%"><stop offset="0%" stop-color="#223762"/><stop offset="100%" stop-color="#041B48"/></linearGradient><linearGradient id="linearGradient-38" x1="100.62%" x2="53.385%" y1="66.794%" y2="25.445%"><stop offset="0%" stop-color="#223762"/><stop offset="100%" stop-color="#041B48"/></linearGradient><linearGradient id="linearGradient-39" x1="-31.979%" x2="-14.519%" y1="94.735%" y2="85.21%"><stop offset="0%" stop-color="#F8A695"/><stop offset="100%" stop-color="#E56045"/></linearGradient><linearGradient id="linearGradient-40" x1="49.018%" x2="54.442%" y1="92.238%" y2="-14.948%"><stop offset="0%" stop-color="#4C93F4"/><stop offset="100%" stop-color="#0B63DA"/></linearGradient><linearGradient id="linearGradient-41" x1="70.134%" x2="64.479%" y1="-89.617%" y2="-29.318%"><stop offset="0%" stop-color="#4C93F4"/><stop offset="100%" stop-color="#0B63DA"/></linearGradient><linearGradient id="linearGradient-42" x1="71.056%" x2="66.509%" y1="-244.986%" y2="-157.289%"><stop offset="0%" stop-color="#4C93F4"/><stop offset="100%" stop-color="#0B63DA"/></linearGradient><linearGradient id="linearGradient-43" x1="28.06%" x2="66.449%" y1="34.272%" y2="48.738%"><stop offset="0%" stop-color="#F8A695"/><stop offset="100%" stop-color="#E56045"/></linearGradient><linearGradient id="linearGradient-44" x1="-13.859%" x2="107.501%" y1="-20.79%" y2="100.581%"><stop offset="0%" stop-color="#FFC063"/><stop offset="95%" stop-color="#E44D0B"/></linearGradient><linearGradient id="linearGradient-45" x1="141.332%" x2="-10.344%" y1="-77.509%" y2="196.749%"><stop offset="0%" stop-color="#FFC063"/><stop offset="100%" stop-color="#E58F0F"/></linearGradient></defs><g id="Page-1" fill="none" fill-rule="evenodd" stroke="none" stroke-width="1"><g id="9_work"><path id="Path" fill="url(#linearGradient-1)" d="M128.59,465.33 C129.38,338.09 26.4,260.54 6.59,200 C-23.17,109.09 53.83,-10.85 266.82,66.5 C479.81,143.85 534,183.92 552.17,323.23 C566.71,434.71 483.37,532.88 416.86,572 C312.8,633.18 127.8,592.57 128.59,465.33 Z" opacity=".49"/><path id="Path" fill="url(#linearGradient-2)" d="M106.83,382.06 C101.62,446.51 127.83,506.37 160.42,546.13 C198.98,512.13 226.5,456.62 231.71,392.13 C236.92,327.64 218.66,268.49 186.06,228.73 C147.49,262.79 112,317.61 106.83,382.06 Z"/><path id="Path" fill="url(#linearGradient-3)" d="M131,135.15 C129.48,190.42 141.4,239.96 161.16,272.15 C182.66,241.08 197.29,192.27 198.81,137 C200.33,81.73 188.44,32.21 168.68,0 C147.18,31.07 132.55,79.88 131,135.15 Z"/><path id="Path" fill="url(#linearGradient-4)" d="M90,228 C86.82,177.88 80.36,87.52 76.55,34.86 C46.61,81.45 31.55,149.48 39.55,223.16 C47.49,296 76.24,358.54 114.81,397.71 C105.58,347.81 92.9,273.61 90,228 Z"/><path id="Path" fill="url(#linearGradient-5)" d="M156.1,210.48 C148,135.75 117.93,71.74 77.82,32.82 C77.38,33.48 76.98,34.19 76.55,34.82 C80.36,87.52 86.82,177.88 90,228 C92.9,273.62 105.58,347.82 114.81,397.72 C115.81,398.72 116.81,399.83 117.81,400.83 C148.65,354.18 164.22,285.21 156.1,210.48 Z"/><path id="Path" fill="url(#linearGradient-6)" d="M162,261.48 C153.44,307.75 160,351.48 177,382.06 C203.85,359.64 225.58,321.06 234.14,274.82 C242.7,228.58 236.14,184.82 219.14,154.24 C192.32,176.66 170.59,215.21 162,261.48 Z"/><ellipse id="Oval" cx="102.778" cy="238.513" fill="url(#linearGradient-7)" rx="6.64" ry="11.85" transform="translate(102.778348, 238.513463) rotate(-6.210000) translate(-102.778348, -238.513463)"/><ellipse id="Oval" cx="119.451" cy="249.881" fill="url(#linearGradient-8)" rx="11.85" ry="6.64" transform="translate(119.451402, 249.880847) rotate(-51.210000) translate(-119.451402, -249.880847)"/><ellipse id="Oval" cx="124.104" cy="312.658" fill="url(#linearGradient-9)" rx="16.26" ry="9.12" transform="translate(124.104444, 312.658269) rotate(-51.210000) translate(-124.104444, -312.658269)"/><ellipse id="Oval" cx="123.9" cy="345.319" fill="url(#linearGradient-10)" rx="16.26" ry="9.12" transform="translate(123.899767, 345.318504) rotate(-71.240000) translate(-123.899767, -345.318504)"/><path id="Path" fill="url(#linearGradient-11)" d="M27.05,391.23 C52.26,441.1 89.91,477.76 128,494.34 C72.6,442.16 3.85,248.82 3.85,248.82 C-5.37,289.32 1.84,341.37 27.05,391.23 Z"/><path id="Path" fill="url(#linearGradient-12)" d="M104.8,351.92 C79.58,302.06 41.93,265.4 3.85,248.82 C3.85,248.82 72.6,442.17 128,494.34 C137.22,453.84 130,401.78 104.8,351.92 Z"/><path id="Path" fill="url(#linearGradient-13)" d="M104.8,351.92 C79.58,302.06 41.93,265.4 3.85,248.82 C3.85,248.82 72.6,442.17 128,494.34 C137.22,453.84 130,401.78 104.8,351.92 Z"/><ellipse id="Oval" cx="73.038" cy="392.87" fill="url(#linearGradient-14)" rx="5.13" ry="9.14" transform="translate(73.037997, 392.870274) rotate(-27.930000) translate(-73.037997, -392.870274)"/><ellipse id="Oval" cx="106.409" cy="395.144" fill="url(#linearGradient-15)" rx="5.13" ry="9.14" transform="translate(106.409011, 395.144443) rotate(-27.930000) translate(-106.409011, -395.144443)"/><ellipse id="Oval" cx="88.25" cy="396.267" fill="url(#linearGradient-16)" rx="9.14" ry="5.13" transform="translate(88.249708, 396.266979) rotate(-72.930000) translate(-88.249708, -396.266979)"/><ellipse id="Oval" cx="93.88" cy="411.782" fill="url(#linearGradient-17)" rx="9.166" ry="5.145" transform="translate(93.880100, 411.782300) rotate(-73.191308) translate(-93.880100, -411.782300)"/><ellipse id="Oval" cx="109.52" cy="439.92" fill="url(#linearGradient-18)" rx="12.54" ry="7.03" transform="translate(109.519939, 439.919939) rotate(-72.930000) translate(-109.519939, -439.919939)"/><ellipse id="Oval" cx="118.689" cy="463.362" fill="url(#linearGradient-19)" rx="7.03" ry="12.54" transform="translate(118.688974, 463.362277) rotate(-2.960000) translate(-118.688974, -463.362277)"/><path id="Path" fill="url(#linearGradient-20)" d="M259.27,269.42 L221.27,269.42 C218.392596,269.42 216.06,271.752596 216.06,274.63 L216.06,298.05 C216.06,300.927404 218.392596,303.26 221.27,303.26 L229.57,303.26 L237.37,314 L240.25,314 L251,303.26 L259.3,303.26 C262.177404,303.26 264.51,300.927404 264.51,298.05 L264.51,274.63 C264.510023,273.243009 263.956998,271.913258 262.973435,270.935326 C261.989872,269.957395 260.656968,269.412013 259.27,269.42 Z"/><path id="Path" fill="url(#linearGradient-21)" d="M256.39,269.42 L218.39,269.42 C215.512596,269.42 213.18,271.752596 213.18,274.63 L213.18,298.05 C213.18,300.927404 215.512596,303.26 218.39,303.26 L226.69,303.26 L237.37,314 L248.08,303.29 L256.38,303.29 C259.257404,303.29 261.59,300.957404 261.59,298.08 L261.59,274.63 C261.590005,271.756497 259.263498,269.425515 256.39,269.42 Z"/><path id="Path" fill="url(#linearGradient-22)" d="M448.45,109.5 C451.51,120.03 440.26,128.64 431.13,122.82 C409.56,109.06 366.29,86.71 332.88,78.27 C286,66.42 325,9.71 362.12,6.27 C399.24,2.83 443,91.42 448.29,109 L448.45,109.5 Z" opacity=".49"/><rect id="Rectangle" width="54.32" height="54.32" x="452.38" y="266.86" fill="url(#linearGradient-23)" opacity=".45"/><path id="Path" fill="url(#linearGradient-24)" d="M436.15,313 L444.43,310.58 C452.71,308.16 452.43,290.98 452.43,290.98 L452.43,262.22 L506.7,262.22 L506.7,291 C506.7,291 507.03,308.19 498.7,310.6 L490.47,313 L436.15,313 Z"/><rect id="Rectangle" width="54.32" height="54.32" x="537.318" y="328.592" fill="url(#linearGradient-25)" opacity=".45" transform="translate(564.477699, 355.751543) rotate(7.130000) translate(-564.477699, -355.751543)"/><path id="Path" fill="url(#linearGradient-26)" d="M519.06,369.18 L527.58,367.81 C536.1,366.44 537.9,349.35 537.9,349.35 L541.47,320.84 L595.37,327.58 L591.8,356.09 C591.8,356.09 590,373.18 581.48,374.55 L573,375.93 L519.06,369.18 Z"/><rect id="Rectangle" width="56.03" height="56.03" x="463.225" y="180.552" fill="url(#linearGradient-27)" opacity=".45" transform="translate(491.239914, 208.567014) rotate(-17.490000) translate(-491.239914, -208.567014)"/><path id="Path" fill="url(#linearGradient-28)" d="M454.42,240.67 L461.82,235.73 C469.22,230.79 463.57,213.98 463.57,213.98 L454.66,185.71 L508.09,168.87 L517,197.14 C517,197.14 522.65,213.94 515.25,218.89 L507.85,223.83 L454.42,240.67 Z"/><g id="Group" transform="translate(112.000000, 129.000000)"><path id="Path" fill="url(#linearGradient-29)" d="M62.7,249 C62.7,249 64.7,228.3 57.54,218.65 C50.38,209 40.96,205.95 38.73,203.65 C36.5,201.35 12.33,177.4 7.24,175.48 C5.32,174.76 -1.76,173.15 1.88,183.69 C5.52,194.23 24.56,203.83 23.62,207.04 C22.68,210.25 13.04,212.93 9.55,222.66 C6.06,232.39 4.55,242.28 15.04,245.19 C25.53,248.1 47.29,264.8 47.29,264.8 L62.7,249 Z"/><path id="Path" fill="url(#linearGradient-30)" d="M47.48,257.05 C47.48,257.05 36.87,249.58 36.87,245.36 C36.87,241.14 41,220.78 41,220.78 C41,220.78 35.06,237.78 23,245.7 C22,246.32 21.14,246.86 20.25,247.36 C30.93,252.59 45.65,263.76 46.85,264.67 L47.2,260.23 L47.48,257.05 Z"/><path id="Path" fill="url(#linearGradient-31)" d="M185.27,202.93 L133.13,300.62 L65.91,233.56 C65.91,233.56 48.1,245.67 45.14,256.76 L42.14,267.85 C42.14,267.85 119.96,344.54 130.83,351.17 C141.7,357.8 203.76,314 203.76,314 L185.27,202.93 Z"/><path id="Path" fill="url(#linearGradient-32)" d="M278,188.67 C278,188.67 328,206.39 340,218.85 C352,231.31 332.9,352.79 332.94,376.57 C332.98,400.35 336.27,485.85 336.27,485.85 C336.27,485.85 258.39,501.12 217.79,488.9 C176.61,476.51 167.5,472.9 167.5,472.9 C167.5,472.9 166.13,319.9 166.81,292.56 C167.49,265.22 175.55,214.43 185.23,202.88 C194.91,191.33 224.41,189.88 224.41,189.88 L278,188.67 Z"/><path id="Path" fill="url(#linearGradient-33)" d="M207,322.64 C207,322.64 239.16,360.52 263.58,378.33 C288,396.14 289.11,426.33 281.49,443.53 C273.87,460.73 207.12,458.28 188.49,463.75 C181.208373,465.990015 174.221784,469.095539 167.68,473 C168.97,473.49 179.53,477.37 217.82,488.9 C258.41,501.12 336.3,485.85 336.3,485.85 C336.3,485.85 333,400.35 333,376.57 C333,368.96 334.94,351.34 337.21,330.5 L207,322.64 Z"/><path id="Path" fill="#FFF" d="M224.24,189.05 L212.52,191.35 C212.52,191.35 211.39,199.76 221.09,208.23 C230.79,216.7 243.22,215.4 256.27,209.06 C269.32,202.72 278,188.67 278,188.67 L269.66,186.78 L224.24,189.05 Z"/><path id="Path" fill="url(#linearGradient-34)" d="M217,157.68 L224.45,190 C224.45,190 229.45,196 243.04,195.86 C256.63,195.72 269.67,186.86 269.67,186.86 L269.28,153.8 L217,157.68 Z"/><path id="Path" fill="url(#linearGradient-35)" d="M196.16,40.82 C196.16,40.82 194.26,87.27 194.11,103.5 C193.96,119.73 214.11,123.4 214.11,123.4 L242.75,92 L228.61,43.8 L196.16,40.82 Z"/><path id="Path" fill="url(#linearGradient-36)" d="M197.64,96.19 C199.03,114.44 200.87,136.48 208.98,155.6 C217.09,174.72 255.21,178 267.55,162.37 C279.89,146.74 283.75,122.12 283.75,122.12 C283.75,122.12 296.88,122.72 300.02,112.85 C303.16,102.98 302.02,88.37 295.88,85.63 C289.74,82.89 284,89.75 284,89.75 C284,89.75 285.77,70.75 272,59.23 C258.23,47.71 207,52.95 204.25,55.45 C201.5,57.95 196.25,77.94 197.64,96.19 Z"/><path id="Path" fill="url(#linearGradient-37)" d="M275.95,113.92 C275.95,113.92 280.27,90.34 278.24,79.78 C276.21,69.22 270.18,62.34 257.94,58.38 C245.7,54.42 210.94,59.38 203.12,57.28 C195.3,55.18 190.72,51.58 193.06,36.11 C195.4,20.64 217.06,-1.52 248.66,0.96 C280.26,3.44 295.5,17.27 306.05,26.56 C316.6,35.85 310.84,61.99 308.54,83.89 C306.24,105.79 299.34,135.69 293.11,146.26 C286.88,156.83 272.57,154.81 272.57,154.81 L283.46,120.07 C283.46,120.07 288.75,122.27 294.62,115.01 C300.49,107.75 302.62,95.11 298.97,89.11 C295.32,83.11 285.66,84.79 282.74,92.66 C279.82,100.53 275.95,113.92 275.95,113.92 Z"/><path id="Path" stroke="#EB6057" stroke-linecap="round" stroke-linejoin="round" d="M214.9,102.4 C214.9,102.4 211.34,125.84 212.23,131.62 C213.12,137.4 228.06,132.8 228.06,132.8"/><path id="Path" fill="url(#linearGradient-38)" d="M274.38,37.54 C257.82,31.54 208.62,47.54 201.38,40.79 C199.15,38.71 197.38,33.79 195.89,27.88 C194.494094,30.485351 193.52512,33.2977395 193.02,36.21 C190.68,51.69 195.24,55.32 203.08,57.38 C210.92,59.44 245.66,54.52 257.9,58.48 C270.14,62.44 276.17,69.32 278.2,79.88 C280.23,90.44 275.95,114 275.95,114 C275.95,114 290.94,43.51 274.38,37.54 Z"/><path id="Path" stroke="#EB6057" stroke-linecap="round" stroke-linejoin="round" d="M285.49,99.34 C285.49,99.34 289.84,96.25 291.42,100.21 C293,104.17 292.93,108.02 287.93,110.6 C285.14,112.04 283.33,109.22 283.33,109.22"/><path id="Path" fill="url(#linearGradient-39)" d="M204.07,284.63 C204.07,284.63 197.76,273.4 191.58,268.63 C185.4,263.86 172.79,264.56 172.79,264.56 L177.89,281.56 L204.07,284.63 Z"/><path id="Path" fill="#223762" d="M190.09,336 L178.63,215.63 C178.231835,212.20514 175.45848,209.545069 172.02,209.29 L87.26,205.49 C85.9703976,205.418815 84.6996814,205.82459 83.69,206.63 L79,209.78 L82,213.7 L93.22,331.65 C93.6181655,335.07486 96.3915202,337.734931 99.83,337.99 L181.32,341.64 L183.2,344.06 L187.78,340.95 L187.95,340.83 L188.12,340.71 C189.55201,339.590139 190.298274,337.805925 190.09,336 Z"/><path id="Path" fill="url(#linearGradient-40)" d="M179.6,345.22 L94.84,341.42 C91.4015202,341.164931 88.6281655,338.50486 88.23,335.08 L76.78,214.72 C76.5739931,213.188245 77.0695535,211.645249 78.1289371,210.519896 C79.1883207,209.394543 80.6986062,208.806788 82.24,208.92 L167,212.72 C170.43848,212.975069 173.211835,215.63514 173.61,219.06 L185.06,339.42 C185.266007,340.951755 184.770446,342.494751 183.711063,343.620104 C182.651679,344.745457 181.141394,345.333212 179.6,345.22 Z"/><path id="Path" fill="#D6E3FA" d="M128.6,253 C128.165998,251.804734 127.916474,250.550366 127.86,249.28 C126.444224,249.071533 124.998951,249.212284 123.65,249.69 C118.55,251.54 116.17,257.75 118.33,263.57 C120.49,269.39 126.33,272.57 131.47,270.76 C135.47,269.31 137.77,265.14 137.52,260.6 C133.383061,259.883185 129.964635,256.970625 128.6,253 Z"/><polygon id="Path" fill="url(#linearGradient-41)" points="147.92 324.31 117.13 322.93 116.55 316.82 147.34 318.2"/><polygon id="Path" fill="url(#linearGradient-42)" points="152.31 329.13 113.62 327.39 113.29 323.98 151.99 325.71"/><path id="Path" fill="url(#linearGradient-43)" d="M212.94,291.34 C212.94,291.34 193.5,276.17 185.13,272 C176.76,267.83 152.73,267.75 147.9,270.33 C143.07,272.91 143.43,287.83 145.11,293.06 C146.79,298.29 165.29,306.79 176.35,310.06 C187.41,313.33 209.69,319.95 209.69,319.95 L212.94,291.34 Z"/><path id="Path" fill="url(#linearGradient-44)" d="M288.69,258.06 C288.69,258.06 283.2,294.88 277.57,298.29 C271.94,301.7 240.44,298.97 240.44,298.97 L286.71,345.11 C286.71,345.11 318.81,344.35 319.94,343.58 C321.07,342.81 324.16,292.25 324.16,292.25 L288.69,258.06 Z"/><path id="Path" fill="url(#linearGradient-45)" d="M294.41,226.18 C294.41,226.18 305.09,211.01 321.86,212.49 C325.01,212.77 327.77,213.14 330.16,213.56 C338.339674,214.987021 344.458799,221.860162 344.93,230.15 C346.7,260.76 350.8,340.15 346.84,357.04 C346.686667,357.706667 346.516667,358.356667 346.33,358.99 C340.24,379.68 315.65,388.46 297.2,377.29 L203.5,320.54 C203.5,320.54 197.66,301.07 204.73,293.02 L211.81,285.02 C211.81,285.02 286.37,321.95 293.41,323.19 C300.45,324.43 280.63,272.19 284.58,253.09 C288.53,233.99 294.41,226.18 294.41,226.18 Z"/></g></g></g></svg>