<svg xmlns="http://www.w3.org/2000/svg" xmlns:xlink="http://www.w3.org/1999/xlink" style="margin:auto;background:0 0;display:block;shape-rendering:auto" width="200" height="200" preserveAspectRatio="xMidYMid" viewBox="0 0 100 100"><g transform="rotate(0 50 50)"><rect width="5" height="14" x="47.5" y="23" fill="#fd2d55" rx="2.5" ry="7"><animate attributeName="opacity" begin="-0.6671608598962193s" dur="0.704225352112676s" keyTimes="0;1" repeatCount="indefinite" values="1;0"/></rect></g><g transform="rotate(18.94736842105263 50 50)"><rect width="5" height="14" x="47.5" y="23" fill="#fd2d55" rx="2.5" ry="7"><animate attributeName="opacity" begin="-0.6300963676797627s" dur="0.704225352112676s" keyTimes="0;1" repeatCount="indefinite" values="1;0"/></rect></g><g transform="rotate(37.89473684210526 50 50)"><rect width="5" height="14" x="47.5" y="23" fill="#fd2d55" rx="2.5" ry="7"><animate attributeName="opacity" begin="-0.593031875463306s" dur="0.704225352112676s" keyTimes="0;1" repeatCount="indefinite" values="1;0"/></rect></g><g transform="rotate(56.8421052631579 50 50)"><rect width="5" height="14" x="47.5" y="23" fill="#fd2d55" rx="2.5" ry="7"><animate attributeName="opacity" begin="-0.5559673832468495s" dur="0.704225352112676s" keyTimes="0;1" repeatCount="indefinite" values="1;0"/></rect></g><g transform="rotate(75.78947368421052 50 50)"><rect width="5" height="14" x="47.5" y="23" fill="#fd2d55" rx="2.5" ry="7"><animate attributeName="opacity" begin="-0.5189028910303928s" dur="0.704225352112676s" keyTimes="0;1" repeatCount="indefinite" values="1;0"/></rect></g><g transform="rotate(94.73684210526316 50 50)"><rect width="5" height="14" x="47.5" y="23" fill="#fd2d55" rx="2.5" ry="7"><animate attributeName="opacity" begin="-0.4818383988139362s" dur="0.704225352112676s" keyTimes="0;1" repeatCount="indefinite" values="1;0"/></rect></g><g transform="rotate(113.6842105263158 50 50)"><rect width="5" height="14" x="47.5" y="23" fill="#fd2d55" rx="2.5" ry="7"><animate attributeName="opacity" begin="-0.44477390659747956s" dur="0.704225352112676s" keyTimes="0;1" repeatCount="indefinite" values="1;0"/></rect></g><g transform="rotate(132.6315789473684 50 50)"><rect width="5" height="14" x="47.5" y="23" fill="#fd2d55" rx="2.5" ry="7"><animate attributeName="opacity" begin="-0.4077094143810229s" dur="0.704225352112676s" keyTimes="0;1" repeatCount="indefinite" values="1;0"/></rect></g><g transform="rotate(151.57894736842104 50 50)"><rect width="5" height="14" x="47.5" y="23" fill="#fd2d55" rx="2.5" ry="7"><animate attributeName="opacity" begin="-0.3706449221645663s" dur="0.704225352112676s" keyTimes="0;1" repeatCount="indefinite" values="1;0"/></rect></g><g transform="rotate(170.52631578947367 50 50)"><rect width="5" height="14" x="47.5" y="23" fill="#fd2d55" rx="2.5" ry="7"><animate attributeName="opacity" begin="-0.33358042994810966s" dur="0.704225352112676s" keyTimes="0;1" repeatCount="indefinite" values="1;0"/></rect></g><g transform="rotate(189.47368421052633 50 50)"><rect width="5" height="14" x="47.5" y="23" fill="#fd2d55" rx="2.5" ry="7"><animate attributeName="opacity" begin="-0.296515937731653s" dur="0.704225352112676s" keyTimes="0;1" repeatCount="indefinite" values="1;0"/></rect></g><g transform="rotate(208.42105263157896 50 50)"><rect width="5" height="14" x="47.5" y="23" fill="#fd2d55" rx="2.5" ry="7"><animate attributeName="opacity" begin="-0.2594514455151964s" dur="0.704225352112676s" keyTimes="0;1" repeatCount="indefinite" values="1;0"/></rect></g><g transform="rotate(227.3684210526316 50 50)"><rect width="5" height="14" x="47.5" y="23" fill="#fd2d55" rx="2.5" ry="7"><animate attributeName="opacity" begin="-0.22238695329873978s" dur="0.704225352112676s" keyTimes="0;1" repeatCount="indefinite" values="1;0"/></rect></g><g transform="rotate(246.31578947368422 50 50)"><rect width="5" height="14" x="47.5" y="23" fill="#fd2d55" rx="2.5" ry="7"><animate attributeName="opacity" begin="-0.18532246108228315s" dur="0.704225352112676s" keyTimes="0;1" repeatCount="indefinite" values="1;0"/></rect></g><g transform="rotate(265.2631578947368 50 50)"><rect width="5" height="14" x="47.5" y="23" fill="#fd2d55" rx="2.5" ry="7"><animate attributeName="opacity" begin="-0.1482579688658265s" dur="0.704225352112676s" keyTimes="0;1" repeatCount="indefinite" values="1;0"/></rect></g><g transform="rotate(284.2105263157895 50 50)"><rect width="5" height="14" x="47.5" y="23" fill="#fd2d55" rx="2.5" ry="7"><animate attributeName="opacity" begin="-0.11119347664936989s" dur="0.704225352112676s" keyTimes="0;1" repeatCount="indefinite" values="1;0"/></rect></g><g transform="rotate(303.1578947368421 50 50)"><rect width="5" height="14" x="47.5" y="23" fill="#fd2d55" rx="2.5" ry="7"><animate attributeName="opacity" begin="-0.07412898443291326s" dur="0.704225352112676s" keyTimes="0;1" repeatCount="indefinite" values="1;0"/></rect></g><g transform="rotate(322.10526315789474 50 50)"><rect width="5" height="14" x="47.5" y="23" fill="#fd2d55" rx="2.5" ry="7"><animate attributeName="opacity" begin="-0.03706449221645663s" dur="0.704225352112676s" keyTimes="0;1" repeatCount="indefinite" values="1;0"/></rect></g><g transform="rotate(341.05263157894734 50 50)"><rect width="5" height="14" x="47.5" y="23" fill="#fd2d55" rx="2.5" ry="7"><animate attributeName="opacity" begin="0s" dur="0.704225352112676s" keyTimes="0;1" repeatCount="indefinite" values="1;0"/></rect></g></svg>